G04 PROTEUS GERBER X2 FILE*
%TF.GenerationSoftware,Labcenter,Proteus,8.6-SP2-Build23525*%
%TF.CreationDate,2024-06-03T09:11:02+00:00*%
%TF.FileFunction,AssemblyDrawing,Top*%
%TF.FilePolarity,Positive*%
%TF.Part,Single*%
%FSLAX45Y45*%
%MOMM*%
G01*
%TA.AperFunction,Profile*%
%ADD17C,0.203200*%
%TA.AperFunction,Material*%
%ADD18C,0.203200*%
%ADD23C,0.256540*%
%ADD24C,0.205230*%
%ADD25C,0.094210*%
%ADD26C,0.230630*%
%ADD27C,0.256250*%
%ADD28C,0.209660*%
%ADD29C,0.106680*%
%ADD72C,0.192190*%
%ADD73C,0.075900*%
%ADD30C,0.097790*%
%ADD31C,0.086360*%
%TD.AperFunction*%
D17*
X-8000000Y-5000000D02*
X+9000000Y-5000000D01*
X+9000000Y+1250000D01*
X-8000000Y+1250000D01*
X-8000000Y-5000000D01*
D18*
X+862840Y-1563500D02*
X+2915160Y-1563500D01*
X+2915160Y-674500D01*
X+862840Y-674500D01*
X+862840Y-1563500D01*
D23*
X+1196342Y-1042038D02*
X+1324612Y-1042038D01*
X+1324612Y-1067692D01*
X+1196342Y-1195962D01*
X+1529844Y-1144654D02*
X+1375920Y-1144654D01*
X+1478536Y-1042038D01*
X+1478536Y-1195962D01*
X+1581152Y-1195962D02*
X+1581152Y-1042038D01*
X+1735076Y-1042038D02*
X+1735076Y-1195962D01*
X+1581152Y-1119000D02*
X+1735076Y-1119000D01*
X+1940308Y-1170308D02*
X+1914654Y-1195962D01*
X+1837692Y-1195962D01*
X+1786384Y-1144654D01*
X+1786384Y-1093346D01*
X+1837692Y-1042038D01*
X+1914654Y-1042038D01*
X+1940308Y-1067692D01*
X+2145540Y-1042038D02*
X+2017270Y-1042038D01*
X+2017270Y-1093346D01*
X+2119886Y-1093346D01*
X+2145540Y-1119000D01*
X+2145540Y-1170308D01*
X+2119886Y-1195962D01*
X+2042924Y-1195962D01*
X+2017270Y-1170308D01*
X+2350772Y-1093346D02*
X+2325118Y-1119000D01*
X+2248156Y-1119000D01*
X+2222502Y-1093346D01*
X+2222502Y-1067692D01*
X+2248156Y-1042038D01*
X+2325118Y-1042038D01*
X+2350772Y-1067692D01*
X+2350772Y-1170308D01*
X+2325118Y-1195962D01*
X+2248156Y-1195962D01*
X+2556004Y-1042038D02*
X+2427734Y-1042038D01*
X+2427734Y-1093346D01*
X+2530350Y-1093346D01*
X+2556004Y-1119000D01*
X+2556004Y-1170308D01*
X+2530350Y-1195962D01*
X+2453388Y-1195962D01*
X+2427734Y-1170308D01*
D18*
X+3362840Y-1563500D02*
X+5415160Y-1563500D01*
X+5415160Y-674500D01*
X+3362840Y-674500D01*
X+3362840Y-1563500D01*
D24*
X+3670691Y-1057431D02*
X+3773306Y-1057431D01*
X+3773306Y-1077954D01*
X+3670691Y-1180570D01*
X+3937491Y-1139524D02*
X+3814353Y-1139524D01*
X+3896445Y-1057431D01*
X+3896445Y-1180570D01*
X+3978538Y-1180570D02*
X+3978538Y-1057431D01*
X+4101676Y-1057431D02*
X+4101676Y-1180570D01*
X+3978538Y-1119000D02*
X+4101676Y-1119000D01*
X+4265861Y-1160047D02*
X+4245338Y-1180570D01*
X+4183769Y-1180570D01*
X+4142723Y-1139524D01*
X+4142723Y-1098477D01*
X+4183769Y-1057431D01*
X+4245338Y-1057431D01*
X+4265861Y-1077954D01*
X+4430046Y-1057431D02*
X+4327431Y-1057431D01*
X+4327431Y-1098477D01*
X+4409523Y-1098477D01*
X+4430046Y-1119000D01*
X+4430046Y-1160047D01*
X+4409523Y-1180570D01*
X+4347954Y-1180570D01*
X+4327431Y-1160047D01*
X+4594231Y-1098477D02*
X+4573708Y-1119000D01*
X+4512139Y-1119000D01*
X+4491616Y-1098477D01*
X+4491616Y-1077954D01*
X+4512139Y-1057431D01*
X+4573708Y-1057431D01*
X+4594231Y-1077954D01*
X+4594231Y-1160047D01*
X+4573708Y-1180570D01*
X+4512139Y-1180570D01*
X+4758416Y-1057431D02*
X+4655801Y-1057431D01*
X+4655801Y-1098477D01*
X+4737893Y-1098477D01*
X+4758416Y-1119000D01*
X+4758416Y-1160047D01*
X+4737893Y-1180570D01*
X+4676324Y-1180570D01*
X+4655801Y-1160047D01*
X+4799463Y-1201093D02*
X+4922601Y-1201093D01*
X+4984171Y-1077954D02*
X+5004694Y-1057431D01*
X+5066263Y-1057431D01*
X+5086786Y-1077954D01*
X+5086786Y-1098477D01*
X+5066263Y-1119000D01*
X+5004694Y-1119000D01*
X+4984171Y-1139524D01*
X+4984171Y-1180570D01*
X+5086786Y-1180570D01*
D18*
X+5862840Y-1563500D02*
X+7915160Y-1563500D01*
X+7915160Y-674500D01*
X+5862840Y-674500D01*
X+5862840Y-1563500D01*
D24*
X+6170691Y-1057431D02*
X+6273306Y-1057431D01*
X+6273306Y-1077954D01*
X+6170691Y-1180570D01*
X+6437491Y-1139524D02*
X+6314353Y-1139524D01*
X+6396445Y-1057431D01*
X+6396445Y-1180570D01*
X+6478538Y-1180570D02*
X+6478538Y-1057431D01*
X+6601676Y-1057431D02*
X+6601676Y-1180570D01*
X+6478538Y-1119000D02*
X+6601676Y-1119000D01*
X+6765861Y-1160047D02*
X+6745338Y-1180570D01*
X+6683769Y-1180570D01*
X+6642723Y-1139524D01*
X+6642723Y-1098477D01*
X+6683769Y-1057431D01*
X+6745338Y-1057431D01*
X+6765861Y-1077954D01*
X+6930046Y-1057431D02*
X+6827431Y-1057431D01*
X+6827431Y-1098477D01*
X+6909523Y-1098477D01*
X+6930046Y-1119000D01*
X+6930046Y-1160047D01*
X+6909523Y-1180570D01*
X+6847954Y-1180570D01*
X+6827431Y-1160047D01*
X+7094231Y-1098477D02*
X+7073708Y-1119000D01*
X+7012139Y-1119000D01*
X+6991616Y-1098477D01*
X+6991616Y-1077954D01*
X+7012139Y-1057431D01*
X+7073708Y-1057431D01*
X+7094231Y-1077954D01*
X+7094231Y-1160047D01*
X+7073708Y-1180570D01*
X+7012139Y-1180570D01*
X+7258416Y-1057431D02*
X+7155801Y-1057431D01*
X+7155801Y-1098477D01*
X+7237893Y-1098477D01*
X+7258416Y-1119000D01*
X+7258416Y-1160047D01*
X+7237893Y-1180570D01*
X+7176324Y-1180570D01*
X+7155801Y-1160047D01*
X+7299463Y-1201093D02*
X+7422601Y-1201093D01*
X+7484171Y-1077954D02*
X+7504694Y-1057431D01*
X+7566263Y-1057431D01*
X+7586786Y-1077954D01*
X+7586786Y-1098477D01*
X+7566263Y-1119000D01*
X+7586786Y-1139524D01*
X+7586786Y-1160047D01*
X+7566263Y-1180570D01*
X+7504694Y-1180570D01*
X+7484171Y-1160047D01*
X+7525217Y-1119000D02*
X+7566263Y-1119000D01*
D18*
X-6764920Y-14160D02*
X-5728600Y-14160D01*
X-5728600Y+641160D01*
X-6764920Y+641160D01*
X-6764920Y-14160D01*
D25*
X-6623600Y+285237D02*
X-6623600Y+341763D01*
X-6585916Y+341763D01*
X-6567074Y+322921D01*
X-6567074Y+304079D01*
X-6585916Y+285237D01*
X-6623600Y+285237D01*
X-6548232Y+294658D02*
X-6538811Y+285237D01*
X-6501127Y+285237D01*
X-6491706Y+294658D01*
X-6491706Y+304079D01*
X-6501127Y+313500D01*
X-6538811Y+313500D01*
X-6548232Y+322921D01*
X-6548232Y+332342D01*
X-6538811Y+341763D01*
X-6501127Y+341763D01*
X-6491706Y+332342D01*
X-6416338Y+341763D02*
X-6472864Y+285237D01*
X-6340970Y+294658D02*
X-6350391Y+285237D01*
X-6378654Y+285237D01*
X-6397496Y+304079D01*
X-6397496Y+322921D01*
X-6378654Y+341763D01*
X-6350391Y+341763D01*
X-6340970Y+332342D01*
X-6322128Y+341763D02*
X-6322128Y+285237D01*
X-6265602Y+285237D01*
X-6246760Y+341763D02*
X-6246760Y+285237D01*
X-6190234Y+341763D02*
X-6218497Y+313500D01*
X-6190234Y+285237D01*
X-6246760Y+313500D02*
X-6218497Y+313500D01*
X-6114866Y+341763D02*
X-6171392Y+285237D01*
X-6096024Y+341763D02*
X-6096024Y+285237D01*
X-6039498Y+285237D01*
X-6020656Y+285237D02*
X-6020656Y+322921D01*
X-6001814Y+341763D01*
X-5982972Y+341763D01*
X-5964130Y+322921D01*
X-5964130Y+285237D01*
X-6020656Y+304079D02*
X-5964130Y+304079D01*
X-5945288Y+341763D02*
X-5888762Y+341763D01*
X-5917025Y+341763D02*
X-5917025Y+285237D01*
D18*
X+477840Y-4264160D02*
X+2784160Y-4264160D01*
X+2784160Y-3608840D01*
X+477840Y-3608840D01*
X+477840Y-4264160D01*
D26*
X+800728Y-3913437D02*
X+846854Y-3867311D01*
X+892980Y-3867311D01*
X+939106Y-3913437D01*
X+939106Y-3959564D01*
X+892980Y-4005690D01*
X+846854Y-4005690D01*
X+800728Y-3959564D01*
X+800728Y-3913437D01*
X+985233Y-3867311D02*
X+985233Y-3982627D01*
X+1008296Y-4005690D01*
X+1100548Y-4005690D01*
X+1123611Y-3982627D01*
X+1123611Y-3867311D01*
X+1169738Y-3867311D02*
X+1308116Y-3867311D01*
X+1238927Y-3867311D02*
X+1238927Y-4005690D01*
X+1354243Y-3982627D02*
X+1354243Y-3890374D01*
X+1377306Y-3867311D01*
X+1469558Y-3867311D01*
X+1492621Y-3890374D01*
X+1492621Y-3982627D01*
X+1469558Y-4005690D01*
X+1377306Y-4005690D01*
X+1354243Y-3982627D01*
X+1354243Y-4005690D02*
X+1492621Y-3867311D01*
X+1723253Y-3867311D02*
X+1861631Y-3867311D01*
X+1792442Y-3867311D02*
X+1792442Y-4005690D01*
X+1907758Y-3913437D02*
X+1953884Y-3867311D01*
X+2000010Y-3867311D01*
X+2046136Y-3913437D01*
X+2046136Y-3959564D01*
X+2000010Y-4005690D01*
X+1953884Y-4005690D01*
X+1907758Y-3959564D01*
X+1907758Y-3913437D01*
X+2299831Y-3867311D02*
X+2415146Y-3867311D01*
X+2415146Y-3890374D01*
X+2299831Y-4005690D01*
D18*
X-7022160Y-4264160D02*
X-4715840Y-4264160D01*
X-4715840Y-3608840D01*
X-7022160Y-3608840D01*
X-7022160Y-4264160D01*
D27*
X-6663395Y-3859623D02*
X-6560892Y-3859623D01*
X-6612144Y-3859623D02*
X-6612144Y-4013377D01*
X-6663395Y-4013377D02*
X-6560892Y-4013377D01*
X-6484015Y-4013377D02*
X-6484015Y-3859623D01*
X-6330262Y-4013377D01*
X-6330262Y-3859623D01*
X-6279010Y-3987751D02*
X-6279010Y-3885249D01*
X-6253385Y-3859623D01*
X-6150882Y-3859623D01*
X-6125257Y-3885249D01*
X-6125257Y-3987751D01*
X-6150882Y-4013377D01*
X-6253385Y-4013377D01*
X-6279010Y-3987751D01*
X-6279010Y-4013377D02*
X-6125257Y-3859623D01*
X-5869000Y-3859623D02*
X-5715247Y-3859623D01*
X-5792124Y-3859623D02*
X-5792124Y-4013377D01*
X-5663995Y-3910874D02*
X-5612744Y-3859623D01*
X-5561493Y-3859623D01*
X-5510242Y-3910874D01*
X-5510242Y-3962126D01*
X-5561493Y-4013377D01*
X-5612744Y-4013377D01*
X-5663995Y-3962126D01*
X-5663995Y-3910874D01*
X-5228360Y-3859623D02*
X-5100232Y-3859623D01*
X-5100232Y-3885249D01*
X-5228360Y-4013377D01*
D18*
X-6649160Y-1563500D02*
X-4596840Y-1563500D01*
X-4596840Y-674500D01*
X-6649160Y-674500D01*
X-6649160Y-1563500D01*
D23*
X-6315658Y-1042038D02*
X-6187388Y-1042038D01*
X-6187388Y-1067692D01*
X-6315658Y-1195962D01*
X-5982156Y-1144654D02*
X-6136080Y-1144654D01*
X-6033464Y-1042038D01*
X-6033464Y-1195962D01*
X-5930848Y-1195962D02*
X-5930848Y-1042038D01*
X-5776924Y-1042038D02*
X-5776924Y-1195962D01*
X-5930848Y-1119000D02*
X-5776924Y-1119000D01*
X-5571692Y-1170308D02*
X-5597346Y-1195962D01*
X-5674308Y-1195962D01*
X-5725616Y-1144654D01*
X-5725616Y-1093346D01*
X-5674308Y-1042038D01*
X-5597346Y-1042038D01*
X-5571692Y-1067692D01*
X-5469076Y-1093346D02*
X-5417768Y-1042038D01*
X-5417768Y-1195962D01*
X-5161228Y-1067692D02*
X-5186882Y-1042038D01*
X-5263844Y-1042038D01*
X-5289498Y-1067692D01*
X-5289498Y-1170308D01*
X-5263844Y-1195962D01*
X-5186882Y-1195962D01*
X-5161228Y-1170308D01*
X-5161228Y-1144654D01*
X-5186882Y-1119000D01*
X-5289498Y-1119000D01*
X-4955996Y-1042038D02*
X-5084266Y-1042038D01*
X-5084266Y-1093346D01*
X-4981650Y-1093346D01*
X-4955996Y-1119000D01*
X-4955996Y-1170308D01*
X-4981650Y-1195962D01*
X-5058612Y-1195962D01*
X-5084266Y-1170308D01*
D18*
X-4399160Y-1563500D02*
X-2346840Y-1563500D01*
X-2346840Y-674500D01*
X-4399160Y-674500D01*
X-4399160Y-1563500D01*
D24*
X-4091309Y-1057431D02*
X-3988694Y-1057431D01*
X-3988694Y-1077954D01*
X-4091309Y-1180570D01*
X-3824509Y-1139524D02*
X-3947647Y-1139524D01*
X-3865555Y-1057431D01*
X-3865555Y-1180570D01*
X-3783462Y-1180570D02*
X-3783462Y-1057431D01*
X-3660324Y-1057431D02*
X-3660324Y-1180570D01*
X-3783462Y-1119000D02*
X-3660324Y-1119000D01*
X-3496139Y-1160047D02*
X-3516662Y-1180570D01*
X-3578231Y-1180570D01*
X-3619277Y-1139524D01*
X-3619277Y-1098477D01*
X-3578231Y-1057431D01*
X-3516662Y-1057431D01*
X-3496139Y-1077954D01*
X-3414046Y-1098477D02*
X-3373000Y-1057431D01*
X-3373000Y-1180570D01*
X-3167769Y-1077954D02*
X-3188292Y-1057431D01*
X-3249861Y-1057431D01*
X-3270384Y-1077954D01*
X-3270384Y-1160047D01*
X-3249861Y-1180570D01*
X-3188292Y-1180570D01*
X-3167769Y-1160047D01*
X-3167769Y-1139524D01*
X-3188292Y-1119000D01*
X-3270384Y-1119000D01*
X-3003584Y-1057431D02*
X-3106199Y-1057431D01*
X-3106199Y-1098477D01*
X-3024107Y-1098477D01*
X-3003584Y-1119000D01*
X-3003584Y-1160047D01*
X-3024107Y-1180570D01*
X-3085676Y-1180570D01*
X-3106199Y-1160047D01*
X-2962537Y-1201093D02*
X-2839399Y-1201093D01*
X-2777829Y-1077954D02*
X-2757306Y-1057431D01*
X-2695737Y-1057431D01*
X-2675214Y-1077954D01*
X-2675214Y-1098477D01*
X-2695737Y-1119000D01*
X-2757306Y-1119000D01*
X-2777829Y-1139524D01*
X-2777829Y-1180570D01*
X-2675214Y-1180570D01*
D18*
X-1899160Y-1563500D02*
X+153160Y-1563500D01*
X+153160Y-674500D01*
X-1899160Y-674500D01*
X-1899160Y-1563500D01*
D24*
X-1591309Y-1057431D02*
X-1488694Y-1057431D01*
X-1488694Y-1077954D01*
X-1591309Y-1180570D01*
X-1324509Y-1139524D02*
X-1447647Y-1139524D01*
X-1365555Y-1057431D01*
X-1365555Y-1180570D01*
X-1283462Y-1180570D02*
X-1283462Y-1057431D01*
X-1160324Y-1057431D02*
X-1160324Y-1180570D01*
X-1283462Y-1119000D02*
X-1160324Y-1119000D01*
X-996139Y-1160047D02*
X-1016662Y-1180570D01*
X-1078231Y-1180570D01*
X-1119277Y-1139524D01*
X-1119277Y-1098477D01*
X-1078231Y-1057431D01*
X-1016662Y-1057431D01*
X-996139Y-1077954D01*
X-914046Y-1098477D02*
X-873000Y-1057431D01*
X-873000Y-1180570D01*
X-667769Y-1077954D02*
X-688292Y-1057431D01*
X-749861Y-1057431D01*
X-770384Y-1077954D01*
X-770384Y-1160047D01*
X-749861Y-1180570D01*
X-688292Y-1180570D01*
X-667769Y-1160047D01*
X-667769Y-1139524D01*
X-688292Y-1119000D01*
X-770384Y-1119000D01*
X-503584Y-1057431D02*
X-606199Y-1057431D01*
X-606199Y-1098477D01*
X-524107Y-1098477D01*
X-503584Y-1119000D01*
X-503584Y-1160047D01*
X-524107Y-1180570D01*
X-585676Y-1180570D01*
X-606199Y-1160047D01*
X-462537Y-1201093D02*
X-339399Y-1201093D01*
X-277829Y-1077954D02*
X-257306Y-1057431D01*
X-195737Y-1057431D01*
X-175214Y-1077954D01*
X-175214Y-1098477D01*
X-195737Y-1119000D01*
X-175214Y-1139524D01*
X-175214Y-1160047D01*
X-195737Y-1180570D01*
X-257306Y-1180570D01*
X-277829Y-1160047D01*
X-236783Y-1119000D02*
X-195737Y-1119000D01*
D18*
X-4522160Y-4264160D02*
X-2215840Y-4264160D01*
X-2215840Y-3608840D01*
X-4522160Y-3608840D01*
X-4522160Y-4264160D01*
D26*
X-4176209Y-3867311D02*
X-4083957Y-3867311D01*
X-4130083Y-3867311D02*
X-4130083Y-4005690D01*
X-4176209Y-4005690D02*
X-4083957Y-4005690D01*
X-4014767Y-4005690D02*
X-4014767Y-3867311D01*
X-3876389Y-4005690D01*
X-3876389Y-3867311D01*
X-3784136Y-3936500D02*
X-3807199Y-3913437D01*
X-3807199Y-3890374D01*
X-3784136Y-3867311D01*
X-3714947Y-3867311D01*
X-3691884Y-3890374D01*
X-3691884Y-3913437D01*
X-3714947Y-3936500D01*
X-3784136Y-3936500D01*
X-3807199Y-3959564D01*
X-3807199Y-3982627D01*
X-3784136Y-4005690D01*
X-3714947Y-4005690D01*
X-3691884Y-3982627D01*
X-3691884Y-3959564D01*
X-3714947Y-3936500D01*
X-3461252Y-3867311D02*
X-3322874Y-3867311D01*
X-3392063Y-3867311D02*
X-3392063Y-4005690D01*
X-3276747Y-3913437D02*
X-3230621Y-3867311D01*
X-3184495Y-3867311D01*
X-3138369Y-3913437D01*
X-3138369Y-3959564D01*
X-3184495Y-4005690D01*
X-3230621Y-4005690D01*
X-3276747Y-3959564D01*
X-3276747Y-3913437D01*
X-2861611Y-3913437D02*
X-2815485Y-3867311D01*
X-2815485Y-4005690D01*
X-2584854Y-3867311D02*
X-2700169Y-3867311D01*
X-2700169Y-3913437D01*
X-2607917Y-3913437D01*
X-2584854Y-3936500D01*
X-2584854Y-3982627D01*
X-2607917Y-4005690D01*
X-2677106Y-4005690D01*
X-2700169Y-3982627D01*
D18*
X-2022160Y-4264160D02*
X+284160Y-4264160D01*
X+284160Y-3608840D01*
X-2022160Y-3608840D01*
X-2022160Y-4264160D01*
D28*
X-1686694Y-3873600D02*
X-1602828Y-3873600D01*
X-1644761Y-3873600D02*
X-1644761Y-3999399D01*
X-1686694Y-3999399D02*
X-1602828Y-3999399D01*
X-1539928Y-3999399D02*
X-1539928Y-3873600D01*
X-1414129Y-3999399D01*
X-1414129Y-3873600D01*
X-1330263Y-3915533D02*
X-1288330Y-3873600D01*
X-1288330Y-3999399D01*
X-1078665Y-3894567D02*
X-1099632Y-3873600D01*
X-1162531Y-3873600D01*
X-1183498Y-3894567D01*
X-1183498Y-3978433D01*
X-1162531Y-3999399D01*
X-1099632Y-3999399D01*
X-1078665Y-3978433D01*
X-1078665Y-3957466D01*
X-1099632Y-3936500D01*
X-1183498Y-3936500D01*
X-869000Y-3873600D02*
X-743201Y-3873600D01*
X-806101Y-3873600D02*
X-806101Y-3999399D01*
X-701268Y-3915533D02*
X-659335Y-3873600D01*
X-617402Y-3873600D01*
X-575469Y-3915533D01*
X-575469Y-3957466D01*
X-617402Y-3999399D01*
X-659335Y-3999399D01*
X-701268Y-3957466D01*
X-701268Y-3915533D01*
X-344838Y-3894567D02*
X-323871Y-3873600D01*
X-260972Y-3873600D01*
X-240005Y-3894567D01*
X-240005Y-3915533D01*
X-260972Y-3936500D01*
X-323871Y-3936500D01*
X-344838Y-3957466D01*
X-344838Y-3999399D01*
X-240005Y-3999399D01*
X-177106Y-3894567D02*
X-156139Y-3873600D01*
X-93240Y-3873600D01*
X-72273Y-3894567D01*
X-72273Y-3915533D01*
X-93240Y-3936500D01*
X-72273Y-3957466D01*
X-72273Y-3978433D01*
X-93240Y-3999399D01*
X-156139Y-3999399D01*
X-177106Y-3978433D01*
X-135173Y-3936500D02*
X-93240Y-3936500D01*
D18*
X-6850900Y-3104900D02*
X-6673100Y-3104900D01*
X-6673100Y-1911100D01*
X-6850900Y-1911100D01*
X-6850900Y-3104900D01*
D29*
X-6729996Y-2593344D02*
X-6794004Y-2593344D01*
X-6794004Y-2540004D01*
X-6783336Y-2529336D01*
X-6772668Y-2529336D01*
X-6762000Y-2540004D01*
X-6762000Y-2593344D01*
X-6762000Y-2540004D02*
X-6751332Y-2529336D01*
X-6729996Y-2529336D01*
X-6772668Y-2486664D02*
X-6794004Y-2465328D01*
X-6729996Y-2465328D01*
D18*
X-6600900Y-3104900D02*
X-6423100Y-3104900D01*
X-6423100Y-1911100D01*
X-6600900Y-1911100D01*
X-6600900Y-3104900D01*
D29*
X-6479996Y-2593344D02*
X-6544004Y-2593344D01*
X-6544004Y-2540004D01*
X-6533336Y-2529336D01*
X-6522668Y-2529336D01*
X-6512000Y-2540004D01*
X-6512000Y-2593344D01*
X-6512000Y-2540004D02*
X-6501332Y-2529336D01*
X-6479996Y-2529336D01*
X-6533336Y-2497332D02*
X-6544004Y-2486664D01*
X-6544004Y-2454660D01*
X-6533336Y-2443992D01*
X-6522668Y-2443992D01*
X-6512000Y-2454660D01*
X-6512000Y-2486664D01*
X-6501332Y-2497332D01*
X-6479996Y-2497332D01*
X-6479996Y-2443992D01*
D18*
X-6350900Y-3104900D02*
X-6173100Y-3104900D01*
X-6173100Y-1911100D01*
X-6350900Y-1911100D01*
X-6350900Y-3104900D01*
D29*
X-6229996Y-2593344D02*
X-6294004Y-2593344D01*
X-6294004Y-2540004D01*
X-6283336Y-2529336D01*
X-6272668Y-2529336D01*
X-6262000Y-2540004D01*
X-6262000Y-2593344D01*
X-6262000Y-2540004D02*
X-6251332Y-2529336D01*
X-6229996Y-2529336D01*
X-6283336Y-2497332D02*
X-6294004Y-2486664D01*
X-6294004Y-2454660D01*
X-6283336Y-2443992D01*
X-6272668Y-2443992D01*
X-6262000Y-2454660D01*
X-6251332Y-2443992D01*
X-6240664Y-2443992D01*
X-6229996Y-2454660D01*
X-6229996Y-2486664D01*
X-6240664Y-2497332D01*
X-6262000Y-2475996D02*
X-6262000Y-2454660D01*
D18*
X-6100900Y-3104900D02*
X-5923100Y-3104900D01*
X-5923100Y-1911100D01*
X-6100900Y-1911100D01*
X-6100900Y-3104900D01*
D29*
X-5979996Y-2593344D02*
X-6044004Y-2593344D01*
X-6044004Y-2540004D01*
X-6033336Y-2529336D01*
X-6022668Y-2529336D01*
X-6012000Y-2540004D01*
X-6012000Y-2593344D01*
X-6012000Y-2540004D02*
X-6001332Y-2529336D01*
X-5979996Y-2529336D01*
X-6001332Y-2443992D02*
X-6001332Y-2508000D01*
X-6044004Y-2465328D01*
X-5979996Y-2465328D01*
D18*
X-5850900Y-3104900D02*
X-5673100Y-3104900D01*
X-5673100Y-1911100D01*
X-5850900Y-1911100D01*
X-5850900Y-3104900D01*
D29*
X-5729996Y-2593344D02*
X-5794004Y-2593344D01*
X-5794004Y-2540004D01*
X-5783336Y-2529336D01*
X-5772668Y-2529336D01*
X-5762000Y-2540004D01*
X-5762000Y-2593344D01*
X-5762000Y-2540004D02*
X-5751332Y-2529336D01*
X-5729996Y-2529336D01*
X-5794004Y-2443992D02*
X-5794004Y-2497332D01*
X-5772668Y-2497332D01*
X-5772668Y-2454660D01*
X-5762000Y-2443992D01*
X-5740664Y-2443992D01*
X-5729996Y-2454660D01*
X-5729996Y-2486664D01*
X-5740664Y-2497332D01*
D18*
X-5600900Y-3104900D02*
X-5423100Y-3104900D01*
X-5423100Y-1911100D01*
X-5600900Y-1911100D01*
X-5600900Y-3104900D01*
D29*
X-5479996Y-2593344D02*
X-5544004Y-2593344D01*
X-5544004Y-2540004D01*
X-5533336Y-2529336D01*
X-5522668Y-2529336D01*
X-5512000Y-2540004D01*
X-5512000Y-2593344D01*
X-5512000Y-2540004D02*
X-5501332Y-2529336D01*
X-5479996Y-2529336D01*
X-5533336Y-2443992D02*
X-5544004Y-2454660D01*
X-5544004Y-2486664D01*
X-5533336Y-2497332D01*
X-5490664Y-2497332D01*
X-5479996Y-2486664D01*
X-5479996Y-2454660D01*
X-5490664Y-2443992D01*
X-5501332Y-2443992D01*
X-5512000Y-2454660D01*
X-5512000Y-2497332D01*
D18*
X-5350900Y-3104900D02*
X-5173100Y-3104900D01*
X-5173100Y-1911100D01*
X-5350900Y-1911100D01*
X-5350900Y-3104900D01*
D29*
X-5229996Y-2593344D02*
X-5294004Y-2593344D01*
X-5294004Y-2540004D01*
X-5283336Y-2529336D01*
X-5272668Y-2529336D01*
X-5262000Y-2540004D01*
X-5262000Y-2593344D01*
X-5262000Y-2540004D02*
X-5251332Y-2529336D01*
X-5229996Y-2529336D01*
X-5294004Y-2497332D02*
X-5294004Y-2443992D01*
X-5283336Y-2443992D01*
X-5229996Y-2497332D01*
D18*
X-5100900Y-3104900D02*
X-4923100Y-3104900D01*
X-4923100Y-1911100D01*
X-5100900Y-1911100D01*
X-5100900Y-3104900D01*
D29*
X-4979996Y-2593344D02*
X-5044004Y-2593344D01*
X-5044004Y-2540004D01*
X-5033336Y-2529336D01*
X-5022668Y-2529336D01*
X-5012000Y-2540004D01*
X-5012000Y-2593344D01*
X-5012000Y-2540004D02*
X-5001332Y-2529336D01*
X-4979996Y-2529336D01*
X-5012000Y-2486664D02*
X-5022668Y-2497332D01*
X-5033336Y-2497332D01*
X-5044004Y-2486664D01*
X-5044004Y-2454660D01*
X-5033336Y-2443992D01*
X-5022668Y-2443992D01*
X-5012000Y-2454660D01*
X-5012000Y-2486664D01*
X-5001332Y-2497332D01*
X-4990664Y-2497332D01*
X-4979996Y-2486664D01*
X-4979996Y-2454660D01*
X-4990664Y-2443992D01*
X-5001332Y-2443992D01*
X-5012000Y-2454660D01*
D18*
X-4350900Y-3104900D02*
X-4173100Y-3104900D01*
X-4173100Y-1911100D01*
X-4350900Y-1911100D01*
X-4350900Y-3104900D01*
D29*
X-4229996Y-2593344D02*
X-4294004Y-2593344D01*
X-4294004Y-2540004D01*
X-4283336Y-2529336D01*
X-4272668Y-2529336D01*
X-4262000Y-2540004D01*
X-4262000Y-2593344D01*
X-4262000Y-2540004D02*
X-4251332Y-2529336D01*
X-4229996Y-2529336D01*
X-4272668Y-2443992D02*
X-4262000Y-2454660D01*
X-4262000Y-2486664D01*
X-4272668Y-2497332D01*
X-4283336Y-2497332D01*
X-4294004Y-2486664D01*
X-4294004Y-2454660D01*
X-4283336Y-2443992D01*
X-4240664Y-2443992D01*
X-4229996Y-2454660D01*
X-4229996Y-2486664D01*
D18*
X-4100900Y-3104900D02*
X-3923100Y-3104900D01*
X-3923100Y-1911100D01*
X-4100900Y-1911100D01*
X-4100900Y-3104900D01*
D29*
X-3979996Y-2636016D02*
X-4044004Y-2636016D01*
X-4044004Y-2582676D01*
X-4033336Y-2572008D01*
X-4022668Y-2572008D01*
X-4012000Y-2582676D01*
X-4012000Y-2636016D01*
X-4012000Y-2582676D02*
X-4001332Y-2572008D01*
X-3979996Y-2572008D01*
X-4022668Y-2529336D02*
X-4044004Y-2508000D01*
X-3979996Y-2508000D01*
X-3990664Y-2465328D02*
X-4033336Y-2465328D01*
X-4044004Y-2454660D01*
X-4044004Y-2411988D01*
X-4033336Y-2401320D01*
X-3990664Y-2401320D01*
X-3979996Y-2411988D01*
X-3979996Y-2454660D01*
X-3990664Y-2465328D01*
X-3979996Y-2465328D02*
X-4044004Y-2401320D01*
D18*
X-3850900Y-3104900D02*
X-3673100Y-3104900D01*
X-3673100Y-1911100D01*
X-3850900Y-1911100D01*
X-3850900Y-3104900D01*
D29*
X-3729996Y-2636016D02*
X-3794004Y-2636016D01*
X-3794004Y-2582676D01*
X-3783336Y-2572008D01*
X-3772668Y-2572008D01*
X-3762000Y-2582676D01*
X-3762000Y-2636016D01*
X-3762000Y-2582676D02*
X-3751332Y-2572008D01*
X-3729996Y-2572008D01*
X-3772668Y-2529336D02*
X-3794004Y-2508000D01*
X-3729996Y-2508000D01*
X-3772668Y-2443992D02*
X-3794004Y-2422656D01*
X-3729996Y-2422656D01*
D18*
X-3600900Y-3104900D02*
X-3423100Y-3104900D01*
X-3423100Y-1911100D01*
X-3600900Y-1911100D01*
X-3600900Y-3104900D01*
D29*
X-3479996Y-2636016D02*
X-3544004Y-2636016D01*
X-3544004Y-2582676D01*
X-3533336Y-2572008D01*
X-3522668Y-2572008D01*
X-3512000Y-2582676D01*
X-3512000Y-2636016D01*
X-3512000Y-2582676D02*
X-3501332Y-2572008D01*
X-3479996Y-2572008D01*
X-3522668Y-2529336D02*
X-3544004Y-2508000D01*
X-3479996Y-2508000D01*
X-3533336Y-2454660D02*
X-3544004Y-2443992D01*
X-3544004Y-2411988D01*
X-3533336Y-2401320D01*
X-3522668Y-2401320D01*
X-3512000Y-2411988D01*
X-3512000Y-2443992D01*
X-3501332Y-2454660D01*
X-3479996Y-2454660D01*
X-3479996Y-2401320D01*
D18*
X-3350900Y-3104900D02*
X-3173100Y-3104900D01*
X-3173100Y-1911100D01*
X-3350900Y-1911100D01*
X-3350900Y-3104900D01*
D29*
X-3229996Y-2636016D02*
X-3294004Y-2636016D01*
X-3294004Y-2582676D01*
X-3283336Y-2572008D01*
X-3272668Y-2572008D01*
X-3262000Y-2582676D01*
X-3262000Y-2636016D01*
X-3262000Y-2582676D02*
X-3251332Y-2572008D01*
X-3229996Y-2572008D01*
X-3272668Y-2529336D02*
X-3294004Y-2508000D01*
X-3229996Y-2508000D01*
X-3283336Y-2454660D02*
X-3294004Y-2443992D01*
X-3294004Y-2411988D01*
X-3283336Y-2401320D01*
X-3272668Y-2401320D01*
X-3262000Y-2411988D01*
X-3251332Y-2401320D01*
X-3240664Y-2401320D01*
X-3229996Y-2411988D01*
X-3229996Y-2443992D01*
X-3240664Y-2454660D01*
X-3262000Y-2433324D02*
X-3262000Y-2411988D01*
D18*
X-3100900Y-3104900D02*
X-2923100Y-3104900D01*
X-2923100Y-1911100D01*
X-3100900Y-1911100D01*
X-3100900Y-3104900D01*
D29*
X-2979996Y-2636016D02*
X-3044004Y-2636016D01*
X-3044004Y-2582676D01*
X-3033336Y-2572008D01*
X-3022668Y-2572008D01*
X-3012000Y-2582676D01*
X-3012000Y-2636016D01*
X-3012000Y-2582676D02*
X-3001332Y-2572008D01*
X-2979996Y-2572008D01*
X-3022668Y-2529336D02*
X-3044004Y-2508000D01*
X-2979996Y-2508000D01*
X-3001332Y-2401320D02*
X-3001332Y-2465328D01*
X-3044004Y-2422656D01*
X-2979996Y-2422656D01*
D18*
X-2850900Y-3104900D02*
X-2673100Y-3104900D01*
X-2673100Y-1911100D01*
X-2850900Y-1911100D01*
X-2850900Y-3104900D01*
D29*
X-2729996Y-2636016D02*
X-2794004Y-2636016D01*
X-2794004Y-2582676D01*
X-2783336Y-2572008D01*
X-2772668Y-2572008D01*
X-2762000Y-2582676D01*
X-2762000Y-2636016D01*
X-2762000Y-2582676D02*
X-2751332Y-2572008D01*
X-2729996Y-2572008D01*
X-2772668Y-2529336D02*
X-2794004Y-2508000D01*
X-2729996Y-2508000D01*
X-2794004Y-2401320D02*
X-2794004Y-2454660D01*
X-2772668Y-2454660D01*
X-2772668Y-2411988D01*
X-2762000Y-2401320D01*
X-2740664Y-2401320D01*
X-2729996Y-2411988D01*
X-2729996Y-2443992D01*
X-2740664Y-2454660D01*
D18*
X-2600900Y-3104900D02*
X-2423100Y-3104900D01*
X-2423100Y-1911100D01*
X-2600900Y-1911100D01*
X-2600900Y-3104900D01*
D29*
X-2479996Y-2636016D02*
X-2544004Y-2636016D01*
X-2544004Y-2582676D01*
X-2533336Y-2572008D01*
X-2522668Y-2572008D01*
X-2512000Y-2582676D01*
X-2512000Y-2636016D01*
X-2512000Y-2582676D02*
X-2501332Y-2572008D01*
X-2479996Y-2572008D01*
X-2522668Y-2529336D02*
X-2544004Y-2508000D01*
X-2479996Y-2508000D01*
X-2533336Y-2401320D02*
X-2544004Y-2411988D01*
X-2544004Y-2443992D01*
X-2533336Y-2454660D01*
X-2490664Y-2454660D01*
X-2479996Y-2443992D01*
X-2479996Y-2411988D01*
X-2490664Y-2401320D01*
X-2501332Y-2401320D01*
X-2512000Y-2411988D01*
X-2512000Y-2454660D01*
D18*
X-1850900Y-3104900D02*
X-1673100Y-3104900D01*
X-1673100Y-1911100D01*
X-1850900Y-1911100D01*
X-1850900Y-3104900D01*
D29*
X-1729996Y-2636016D02*
X-1794004Y-2636016D01*
X-1794004Y-2582676D01*
X-1783336Y-2572008D01*
X-1772668Y-2572008D01*
X-1762000Y-2582676D01*
X-1762000Y-2636016D01*
X-1762000Y-2582676D02*
X-1751332Y-2572008D01*
X-1729996Y-2572008D01*
X-1772668Y-2529336D02*
X-1794004Y-2508000D01*
X-1729996Y-2508000D01*
X-1794004Y-2454660D02*
X-1794004Y-2401320D01*
X-1783336Y-2401320D01*
X-1729996Y-2454660D01*
D18*
X-1600900Y-3104900D02*
X-1423100Y-3104900D01*
X-1423100Y-1911100D01*
X-1600900Y-1911100D01*
X-1600900Y-3104900D01*
D29*
X-1479996Y-2636016D02*
X-1544004Y-2636016D01*
X-1544004Y-2582676D01*
X-1533336Y-2572008D01*
X-1522668Y-2572008D01*
X-1512000Y-2582676D01*
X-1512000Y-2636016D01*
X-1512000Y-2582676D02*
X-1501332Y-2572008D01*
X-1479996Y-2572008D01*
X-1522668Y-2529336D02*
X-1544004Y-2508000D01*
X-1479996Y-2508000D01*
X-1512000Y-2443992D02*
X-1522668Y-2454660D01*
X-1533336Y-2454660D01*
X-1544004Y-2443992D01*
X-1544004Y-2411988D01*
X-1533336Y-2401320D01*
X-1522668Y-2401320D01*
X-1512000Y-2411988D01*
X-1512000Y-2443992D01*
X-1501332Y-2454660D01*
X-1490664Y-2454660D01*
X-1479996Y-2443992D01*
X-1479996Y-2411988D01*
X-1490664Y-2401320D01*
X-1501332Y-2401320D01*
X-1512000Y-2411988D01*
D18*
X-1350900Y-3104900D02*
X-1173100Y-3104900D01*
X-1173100Y-1911100D01*
X-1350900Y-1911100D01*
X-1350900Y-3104900D01*
D29*
X-1229996Y-2636016D02*
X-1294004Y-2636016D01*
X-1294004Y-2582676D01*
X-1283336Y-2572008D01*
X-1272668Y-2572008D01*
X-1262000Y-2582676D01*
X-1262000Y-2636016D01*
X-1262000Y-2582676D02*
X-1251332Y-2572008D01*
X-1229996Y-2572008D01*
X-1272668Y-2529336D02*
X-1294004Y-2508000D01*
X-1229996Y-2508000D01*
X-1272668Y-2401320D02*
X-1262000Y-2411988D01*
X-1262000Y-2443992D01*
X-1272668Y-2454660D01*
X-1283336Y-2454660D01*
X-1294004Y-2443992D01*
X-1294004Y-2411988D01*
X-1283336Y-2401320D01*
X-1240664Y-2401320D01*
X-1229996Y-2411988D01*
X-1229996Y-2443992D01*
D18*
X-1100900Y-3104900D02*
X-923100Y-3104900D01*
X-923100Y-1911100D01*
X-1100900Y-1911100D01*
X-1100900Y-3104900D01*
D29*
X-979996Y-2636016D02*
X-1044004Y-2636016D01*
X-1044004Y-2582676D01*
X-1033336Y-2572008D01*
X-1022668Y-2572008D01*
X-1012000Y-2582676D01*
X-1012000Y-2636016D01*
X-1012000Y-2582676D02*
X-1001332Y-2572008D01*
X-979996Y-2572008D01*
X-1033336Y-2540004D02*
X-1044004Y-2529336D01*
X-1044004Y-2497332D01*
X-1033336Y-2486664D01*
X-1022668Y-2486664D01*
X-1012000Y-2497332D01*
X-1012000Y-2529336D01*
X-1001332Y-2540004D01*
X-979996Y-2540004D01*
X-979996Y-2486664D01*
X-990664Y-2465328D02*
X-1033336Y-2465328D01*
X-1044004Y-2454660D01*
X-1044004Y-2411988D01*
X-1033336Y-2401320D01*
X-990664Y-2401320D01*
X-979996Y-2411988D01*
X-979996Y-2454660D01*
X-990664Y-2465328D01*
X-979996Y-2465328D02*
X-1044004Y-2401320D01*
D18*
X-850900Y-3104900D02*
X-673100Y-3104900D01*
X-673100Y-1911100D01*
X-850900Y-1911100D01*
X-850900Y-3104900D01*
D29*
X-729996Y-2636016D02*
X-794004Y-2636016D01*
X-794004Y-2582676D01*
X-783336Y-2572008D01*
X-772668Y-2572008D01*
X-762000Y-2582676D01*
X-762000Y-2636016D01*
X-762000Y-2582676D02*
X-751332Y-2572008D01*
X-729996Y-2572008D01*
X-783336Y-2540004D02*
X-794004Y-2529336D01*
X-794004Y-2497332D01*
X-783336Y-2486664D01*
X-772668Y-2486664D01*
X-762000Y-2497332D01*
X-762000Y-2529336D01*
X-751332Y-2540004D01*
X-729996Y-2540004D01*
X-729996Y-2486664D01*
X-772668Y-2443992D02*
X-794004Y-2422656D01*
X-729996Y-2422656D01*
D18*
X-600900Y-3104900D02*
X-423100Y-3104900D01*
X-423100Y-1911100D01*
X-600900Y-1911100D01*
X-600900Y-3104900D01*
D29*
X-479996Y-2636016D02*
X-544004Y-2636016D01*
X-544004Y-2582676D01*
X-533336Y-2572008D01*
X-522668Y-2572008D01*
X-512000Y-2582676D01*
X-512000Y-2636016D01*
X-512000Y-2582676D02*
X-501332Y-2572008D01*
X-479996Y-2572008D01*
X-533336Y-2540004D02*
X-544004Y-2529336D01*
X-544004Y-2497332D01*
X-533336Y-2486664D01*
X-522668Y-2486664D01*
X-512000Y-2497332D01*
X-512000Y-2529336D01*
X-501332Y-2540004D01*
X-479996Y-2540004D01*
X-479996Y-2486664D01*
X-533336Y-2454660D02*
X-544004Y-2443992D01*
X-544004Y-2411988D01*
X-533336Y-2401320D01*
X-522668Y-2401320D01*
X-512000Y-2411988D01*
X-512000Y-2443992D01*
X-501332Y-2454660D01*
X-479996Y-2454660D01*
X-479996Y-2401320D01*
D18*
X-350900Y-3104900D02*
X-173100Y-3104900D01*
X-173100Y-1911100D01*
X-350900Y-1911100D01*
X-350900Y-3104900D01*
D29*
X-229996Y-2636016D02*
X-294004Y-2636016D01*
X-294004Y-2582676D01*
X-283336Y-2572008D01*
X-272668Y-2572008D01*
X-262000Y-2582676D01*
X-262000Y-2636016D01*
X-262000Y-2582676D02*
X-251332Y-2572008D01*
X-229996Y-2572008D01*
X-283336Y-2540004D02*
X-294004Y-2529336D01*
X-294004Y-2497332D01*
X-283336Y-2486664D01*
X-272668Y-2486664D01*
X-262000Y-2497332D01*
X-262000Y-2529336D01*
X-251332Y-2540004D01*
X-229996Y-2540004D01*
X-229996Y-2486664D01*
X-283336Y-2454660D02*
X-294004Y-2443992D01*
X-294004Y-2411988D01*
X-283336Y-2401320D01*
X-272668Y-2401320D01*
X-262000Y-2411988D01*
X-251332Y-2401320D01*
X-240664Y-2401320D01*
X-229996Y-2411988D01*
X-229996Y-2443992D01*
X-240664Y-2454660D01*
X-262000Y-2433324D02*
X-262000Y-2411988D01*
D18*
X-100900Y-3104900D02*
X+76900Y-3104900D01*
X+76900Y-1911100D01*
X-100900Y-1911100D01*
X-100900Y-3104900D01*
D29*
X+20004Y-2636016D02*
X-44004Y-2636016D01*
X-44004Y-2582676D01*
X-33336Y-2572008D01*
X-22668Y-2572008D01*
X-12000Y-2582676D01*
X-12000Y-2636016D01*
X-12000Y-2582676D02*
X-1332Y-2572008D01*
X+20004Y-2572008D01*
X-33336Y-2540004D02*
X-44004Y-2529336D01*
X-44004Y-2497332D01*
X-33336Y-2486664D01*
X-22668Y-2486664D01*
X-12000Y-2497332D01*
X-12000Y-2529336D01*
X-1332Y-2540004D01*
X+20004Y-2540004D01*
X+20004Y-2486664D01*
X-1332Y-2401320D02*
X-1332Y-2465328D01*
X-44004Y-2422656D01*
X+20004Y-2422656D01*
D18*
X+2977840Y-4264160D02*
X+5284160Y-4264160D01*
X+5284160Y-3608840D01*
X+2977840Y-3608840D01*
X+2977840Y-4264160D01*
D28*
X+3292340Y-3915533D02*
X+3334273Y-3873600D01*
X+3376206Y-3873600D01*
X+3418139Y-3915533D01*
X+3418139Y-3957466D01*
X+3376206Y-3999399D01*
X+3334273Y-3999399D01*
X+3292340Y-3957466D01*
X+3292340Y-3915533D01*
X+3460072Y-3873600D02*
X+3460072Y-3978433D01*
X+3481038Y-3999399D01*
X+3564904Y-3999399D01*
X+3585871Y-3978433D01*
X+3585871Y-3873600D01*
X+3627804Y-3873600D02*
X+3753603Y-3873600D01*
X+3690703Y-3873600D02*
X+3690703Y-3999399D01*
X+3837469Y-3936500D02*
X+3816502Y-3915533D01*
X+3816502Y-3894567D01*
X+3837469Y-3873600D01*
X+3900368Y-3873600D01*
X+3921335Y-3894567D01*
X+3921335Y-3915533D01*
X+3900368Y-3936500D01*
X+3837469Y-3936500D01*
X+3816502Y-3957466D01*
X+3816502Y-3978433D01*
X+3837469Y-3999399D01*
X+3900368Y-3999399D01*
X+3921335Y-3978433D01*
X+3921335Y-3957466D01*
X+3900368Y-3936500D01*
X+4131000Y-3873600D02*
X+4256799Y-3873600D01*
X+4193899Y-3873600D02*
X+4193899Y-3999399D01*
X+4298732Y-3915533D02*
X+4340665Y-3873600D01*
X+4382598Y-3873600D01*
X+4424531Y-3915533D01*
X+4424531Y-3957466D01*
X+4382598Y-3999399D01*
X+4340665Y-3999399D01*
X+4298732Y-3957466D01*
X+4298732Y-3915533D01*
X+4676129Y-3915533D02*
X+4718062Y-3873600D01*
X+4718062Y-3999399D01*
X+4927727Y-3873600D02*
X+4822894Y-3873600D01*
X+4822894Y-3915533D01*
X+4906760Y-3915533D01*
X+4927727Y-3936500D01*
X+4927727Y-3978433D01*
X+4906760Y-3999399D01*
X+4843861Y-3999399D01*
X+4822894Y-3978433D01*
D18*
X+5477840Y-4264160D02*
X+7784160Y-4264160D01*
X+7784160Y-3608840D01*
X+5477840Y-3608840D01*
X+5477840Y-4264160D01*
D72*
X+5785353Y-3917281D02*
X+5823791Y-3878842D01*
X+5862230Y-3878842D01*
X+5900668Y-3917281D01*
X+5900668Y-3955719D01*
X+5862230Y-3994158D01*
X+5823791Y-3994158D01*
X+5785353Y-3955719D01*
X+5785353Y-3917281D01*
X+5939107Y-3878842D02*
X+5939107Y-3974939D01*
X+5958326Y-3994158D01*
X+6035203Y-3994158D01*
X+6054422Y-3974939D01*
X+6054422Y-3878842D01*
X+6092861Y-3878842D02*
X+6208176Y-3878842D01*
X+6150518Y-3878842D02*
X+6150518Y-3994158D01*
X+6285053Y-3917281D02*
X+6323492Y-3878842D01*
X+6323492Y-3994158D01*
X+6515684Y-3898061D02*
X+6496465Y-3878842D01*
X+6438807Y-3878842D01*
X+6419588Y-3898061D01*
X+6419588Y-3974939D01*
X+6438807Y-3994158D01*
X+6496465Y-3994158D01*
X+6515684Y-3974939D01*
X+6515684Y-3955719D01*
X+6496465Y-3936500D01*
X+6419588Y-3936500D01*
X+6707877Y-3878842D02*
X+6823192Y-3878842D01*
X+6765534Y-3878842D02*
X+6765534Y-3994158D01*
X+6861631Y-3917281D02*
X+6900069Y-3878842D01*
X+6938508Y-3878842D01*
X+6976946Y-3917281D01*
X+6976946Y-3955719D01*
X+6938508Y-3994158D01*
X+6900069Y-3994158D01*
X+6861631Y-3955719D01*
X+6861631Y-3917281D01*
X+7188358Y-3898061D02*
X+7207577Y-3878842D01*
X+7265235Y-3878842D01*
X+7284454Y-3898061D01*
X+7284454Y-3917281D01*
X+7265235Y-3936500D01*
X+7207577Y-3936500D01*
X+7188358Y-3955719D01*
X+7188358Y-3994158D01*
X+7284454Y-3994158D01*
X+7342112Y-3898061D02*
X+7361331Y-3878842D01*
X+7418989Y-3878842D01*
X+7438208Y-3898061D01*
X+7438208Y-3917281D01*
X+7418989Y-3936500D01*
X+7438208Y-3955719D01*
X+7438208Y-3974939D01*
X+7418989Y-3994158D01*
X+7361331Y-3994158D01*
X+7342112Y-3974939D01*
X+7380550Y-3936500D02*
X+7418989Y-3936500D01*
D18*
X-5514160Y-14160D02*
X-4223840Y-14160D01*
X-4223840Y+641160D01*
X-5514160Y+641160D01*
X-5514160Y-14160D01*
D73*
X-5354760Y+298320D02*
X-5347170Y+290730D01*
X-5316810Y+290730D01*
X-5309220Y+298320D01*
X-5309220Y+305910D01*
X-5316810Y+313500D01*
X-5347170Y+313500D01*
X-5354760Y+321090D01*
X-5354760Y+328680D01*
X-5347170Y+336270D01*
X-5316810Y+336270D01*
X-5309220Y+328680D01*
X-5294040Y+321090D02*
X-5278860Y+336270D01*
X-5263680Y+336270D01*
X-5248500Y+321090D01*
X-5248500Y+305910D01*
X-5263680Y+290730D01*
X-5278860Y+290730D01*
X-5294040Y+305910D01*
X-5294040Y+321090D01*
X-5187780Y+336270D02*
X-5233320Y+290730D01*
X-5127060Y+298320D02*
X-5134650Y+290730D01*
X-5157420Y+290730D01*
X-5172600Y+305910D01*
X-5172600Y+321090D01*
X-5157420Y+336270D01*
X-5134650Y+336270D01*
X-5127060Y+328680D01*
X-5111880Y+336270D02*
X-5111880Y+290730D01*
X-5066340Y+290730D01*
X-5051160Y+336270D02*
X-5051160Y+290730D01*
X-5005620Y+336270D02*
X-5028390Y+313500D01*
X-5005620Y+290730D01*
X-5051160Y+313500D02*
X-5028390Y+313500D01*
X-4944900Y+336270D02*
X-4990440Y+290730D01*
X-4922130Y+336270D02*
X-4891770Y+336270D01*
X-4906950Y+336270D02*
X-4906950Y+290730D01*
X-4922130Y+290730D02*
X-4891770Y+290730D01*
X-4869000Y+290730D02*
X-4869000Y+336270D01*
X-4823460Y+290730D01*
X-4823460Y+336270D01*
X-4808280Y+290730D02*
X-4808280Y+336270D01*
X-4762740Y+336270D02*
X-4762740Y+290730D01*
X-4808280Y+313500D02*
X-4762740Y+313500D01*
X-4702020Y+336270D02*
X-4747560Y+290730D01*
X-4686840Y+298320D02*
X-4679250Y+290730D01*
X-4648890Y+290730D01*
X-4641300Y+298320D01*
X-4641300Y+305910D01*
X-4648890Y+313500D01*
X-4679250Y+313500D01*
X-4686840Y+321090D01*
X-4686840Y+328680D01*
X-4679250Y+336270D01*
X-4648890Y+336270D01*
X-4641300Y+328680D01*
X-4626120Y+290730D02*
X-4626120Y+336270D01*
X-4580580Y+336270D02*
X-4580580Y+290730D01*
X-4626120Y+313500D02*
X-4580580Y+313500D01*
X-4557810Y+313500D02*
X-4519860Y+313500D01*
X-4504680Y+336270D02*
X-4504680Y+290730D01*
X-4459140Y+290730D01*
X-4443960Y+290730D02*
X-4443960Y+336270D01*
X-4413600Y+336270D01*
X-4398420Y+321090D01*
X-4398420Y+305910D01*
X-4413600Y+290730D01*
X-4443960Y+290730D01*
D18*
X-4014160Y-14160D02*
X-3231840Y-14160D01*
X-3231840Y+641160D01*
X-4014160Y+641160D01*
X-4014160Y-14160D01*
D30*
X-3896812Y+342837D02*
X-3896812Y+313500D01*
X-3867475Y+284163D01*
X-3838138Y+313500D01*
X-3838138Y+342837D01*
X-3818580Y+293942D02*
X-3808801Y+284163D01*
X-3769685Y+284163D01*
X-3759906Y+293942D01*
X-3759906Y+303721D01*
X-3769685Y+313500D01*
X-3808801Y+313500D01*
X-3818580Y+323279D01*
X-3818580Y+333058D01*
X-3808801Y+342837D01*
X-3769685Y+342837D01*
X-3759906Y+333058D01*
X-3740348Y+293942D02*
X-3730569Y+284163D01*
X-3691453Y+284163D01*
X-3681674Y+293942D01*
X-3681674Y+303721D01*
X-3691453Y+313500D01*
X-3730569Y+313500D01*
X-3740348Y+323279D01*
X-3740348Y+333058D01*
X-3730569Y+342837D01*
X-3691453Y+342837D01*
X-3681674Y+333058D01*
X-3652337Y+313500D02*
X-3603442Y+313500D01*
X-3544768Y+303721D02*
X-3525210Y+303721D01*
X-3525210Y+284163D01*
X-3564326Y+284163D01*
X-3583884Y+303721D01*
X-3583884Y+323279D01*
X-3564326Y+342837D01*
X-3534989Y+342837D01*
X-3525210Y+333058D01*
X-3505652Y+284163D02*
X-3505652Y+342837D01*
X-3446978Y+284163D01*
X-3446978Y+342837D01*
X-3427420Y+284163D02*
X-3427420Y+342837D01*
X-3388304Y+342837D01*
X-3368746Y+323279D01*
X-3368746Y+303721D01*
X-3388304Y+284163D01*
X-3427420Y+284163D01*
D18*
X-3014160Y-14160D02*
X-1977840Y-14160D01*
X-1977840Y+641160D01*
X-3014160Y+641160D01*
X-3014160Y-14160D01*
D31*
X-2875984Y+322136D02*
X-2858712Y+339408D01*
X-2841440Y+339408D01*
X-2824168Y+322136D01*
X-2824168Y+304864D01*
X-2841440Y+287592D01*
X-2858712Y+287592D01*
X-2875984Y+304864D01*
X-2875984Y+322136D01*
X-2841440Y+304864D02*
X-2824168Y+287592D01*
X-2798260Y+339408D02*
X-2755080Y+339408D01*
X-2755080Y+330772D01*
X-2798260Y+287592D01*
X-2703264Y+339408D02*
X-2720536Y+322136D01*
X-2616904Y+339408D02*
X-2668720Y+287592D01*
X-2547816Y+296228D02*
X-2556452Y+287592D01*
X-2582360Y+287592D01*
X-2599632Y+304864D01*
X-2599632Y+322136D01*
X-2582360Y+339408D01*
X-2556452Y+339408D01*
X-2547816Y+330772D01*
X-2530544Y+339408D02*
X-2530544Y+287592D01*
X-2478728Y+287592D01*
X-2461456Y+339408D02*
X-2461456Y+287592D01*
X-2409640Y+339408D02*
X-2435548Y+313500D01*
X-2409640Y+287592D01*
X-2461456Y+313500D02*
X-2435548Y+313500D01*
X-2340552Y+339408D02*
X-2392368Y+287592D01*
X-2323280Y+339408D02*
X-2323280Y+287592D01*
X-2271464Y+287592D01*
X-2254192Y+287592D02*
X-2254192Y+322136D01*
X-2236920Y+339408D01*
X-2219648Y+339408D01*
X-2202376Y+322136D01*
X-2202376Y+287592D01*
X-2254192Y+304864D02*
X-2202376Y+304864D01*
X-2185104Y+339408D02*
X-2133288Y+339408D01*
X-2159196Y+339408D02*
X-2159196Y+287592D01*
D18*
X-1764160Y-14160D02*
X-473840Y-14160D01*
X-473840Y+641160D01*
X-1764160Y+641160D01*
X-1764160Y-14160D01*
D73*
X-1604760Y+298320D02*
X-1597170Y+290730D01*
X-1566810Y+290730D01*
X-1559220Y+298320D01*
X-1559220Y+305910D01*
X-1566810Y+313500D01*
X-1597170Y+313500D01*
X-1604760Y+321090D01*
X-1604760Y+328680D01*
X-1597170Y+336270D01*
X-1566810Y+336270D01*
X-1559220Y+328680D01*
X-1536450Y+336270D02*
X-1506090Y+336270D01*
X-1521270Y+336270D02*
X-1521270Y+290730D01*
X-1536450Y+290730D02*
X-1506090Y+290730D01*
X-1437780Y+336270D02*
X-1483320Y+290730D01*
X-1377060Y+298320D02*
X-1384650Y+290730D01*
X-1407420Y+290730D01*
X-1422600Y+305910D01*
X-1422600Y+321090D01*
X-1407420Y+336270D01*
X-1384650Y+336270D01*
X-1377060Y+328680D01*
X-1361880Y+336270D02*
X-1361880Y+290730D01*
X-1316340Y+290730D01*
X-1301160Y+336270D02*
X-1301160Y+290730D01*
X-1255620Y+336270D02*
X-1278390Y+313500D01*
X-1255620Y+290730D01*
X-1301160Y+313500D02*
X-1278390Y+313500D01*
X-1194900Y+336270D02*
X-1240440Y+290730D01*
X-1172130Y+336270D02*
X-1141770Y+336270D01*
X-1156950Y+336270D02*
X-1156950Y+290730D01*
X-1172130Y+290730D02*
X-1141770Y+290730D01*
X-1119000Y+290730D02*
X-1119000Y+336270D01*
X-1073460Y+290730D01*
X-1073460Y+336270D01*
X-1058280Y+290730D02*
X-1058280Y+336270D01*
X-1012740Y+336270D02*
X-1012740Y+290730D01*
X-1058280Y+313500D02*
X-1012740Y+313500D01*
X-952020Y+336270D02*
X-997560Y+290730D01*
X-936840Y+298320D02*
X-929250Y+290730D01*
X-898890Y+290730D01*
X-891300Y+298320D01*
X-891300Y+305910D01*
X-898890Y+313500D01*
X-929250Y+313500D01*
X-936840Y+321090D01*
X-936840Y+328680D01*
X-929250Y+336270D01*
X-898890Y+336270D01*
X-891300Y+328680D01*
X-876120Y+290730D02*
X-876120Y+336270D01*
X-830580Y+336270D02*
X-830580Y+290730D01*
X-876120Y+313500D02*
X-830580Y+313500D01*
X-807810Y+313500D02*
X-769860Y+313500D01*
X-754680Y+336270D02*
X-754680Y+290730D01*
X-709140Y+290730D01*
X-693960Y+290730D02*
X-693960Y+336270D01*
X-663600Y+336270D01*
X-648420Y+321090D01*
X-648420Y+305910D01*
X-663600Y+290730D01*
X-693960Y+290730D01*
M02*
