G04 PROTEUS GERBER X2 FILE*
%TF.GenerationSoftware,Labcenter,Proteus,8.6-SP2-Build23525*%
%TF.CreationDate,2024-06-03T09:11:02+00:00*%
%TF.FileFunction,Copper,L2,Bot*%
%TF.FilePolarity,Positive*%
%TF.Part,Single*%
%FSLAX45Y45*%
%MOMM*%
G01*
%TA.AperFunction,Conductor*%
%ADD10C,0.254000*%
%ADD11C,0.635000*%
%TA.AperFunction,ViaPad*%
%ADD12C,0.762000*%
%TA.AperFunction,ComponentPad*%
%ADD13R,1.270000X1.270000*%
%ADD14C,1.270000*%
%TA.AperFunction,ComponentPad*%
%ADD15C,2.032000*%
%TA.AperFunction,ComponentPad*%
%ADD16C,1.778000*%
%TA.AperFunction,Profile*%
%ADD17C,0.203200*%
%TD.AperFunction*%
D10*
X+1254000Y-738000D02*
X+742000Y-1250000D01*
X+742000Y-4000000D01*
X+1000000Y-1500000D02*
X+996000Y-1504000D01*
X+996000Y-4000000D01*
X+1254000Y-1500000D02*
X+1250000Y-1504000D01*
X+1250000Y-4000000D01*
X+1508000Y-1500000D02*
X+1504000Y-1504000D01*
X+1504000Y-4000000D01*
X+1762000Y-1500000D02*
X+1758000Y-1504000D01*
X+1758000Y-4000000D01*
X+2016000Y-1500000D02*
X+2016000Y-1714500D01*
X+2012000Y-1718500D01*
X+2012000Y-4000000D01*
X+2270000Y-1500000D02*
X+2270000Y-1714500D01*
X+2266000Y-1718500D01*
X+2266000Y-4000000D01*
X+2524000Y-1500000D02*
X+2524000Y-1714500D01*
X+2520000Y-1718500D01*
X+2520000Y-4000000D01*
X+4262000Y-635000D02*
X+4071500Y-444500D01*
X+2055500Y-444500D01*
X+1762000Y-738000D01*
X+4262000Y-738000D02*
X+4262000Y-889000D01*
X+4381500Y-889000D01*
X+4381500Y-698500D01*
X+4445000Y-635000D01*
X+4572000Y-635000D01*
X+4635500Y-698500D01*
X+4635500Y-825500D01*
X+4699000Y-889000D01*
X+5397500Y-889000D01*
X+5651500Y-635000D01*
X+6659000Y-635000D01*
X+6762000Y-738000D01*
X+4262000Y-738000D02*
X+4262000Y-635000D01*
X+3754000Y-738000D02*
X+3242000Y-1250000D01*
X+3242000Y-4000000D01*
X+3500000Y-1500000D02*
X+3496000Y-1504000D01*
X+3496000Y-4000000D01*
X+3754000Y-1500000D02*
X+3754000Y-1714500D01*
X+3750000Y-1718500D01*
X+3750000Y-4000000D01*
X+4008000Y-1500000D02*
X+4008000Y-1714500D01*
X+4004000Y-1718500D01*
X+4004000Y-4000000D01*
X+4262000Y-1500000D02*
X+4262000Y-1714500D01*
X+4258000Y-1718500D01*
X+4258000Y-4000000D01*
X+4516000Y-1500000D02*
X+4516000Y-1714500D01*
X+4512000Y-1718500D01*
X+4512000Y-4000000D01*
X+4770000Y-1500000D02*
X+4766000Y-1504000D01*
X+4766000Y-4000000D01*
X+5024000Y-1500000D02*
X+5024000Y-1714500D01*
X+5020000Y-1718500D01*
X+5020000Y-4000000D01*
X+6254000Y-738000D02*
X+6254000Y-885000D01*
X+5742000Y-1397000D01*
X+5742000Y-4000000D01*
X+6000000Y-1500000D02*
X+6000000Y-1714500D01*
X+5996000Y-1718500D01*
X+5996000Y-4000000D01*
X+6254000Y-1500000D02*
X+6254000Y-1714500D01*
X+6250000Y-1718500D01*
X+6250000Y-4000000D01*
X+6508000Y-1500000D02*
X+6504000Y-1504000D01*
X+6504000Y-4000000D01*
X+6762000Y-1500000D02*
X+6762000Y-1714500D01*
X+6758000Y-1718500D01*
X+6758000Y-4000000D01*
X+7016000Y-1500000D02*
X+7016000Y-1714500D01*
X+7012000Y-1718500D01*
X+7012000Y-4000000D01*
X+7270000Y-1500000D02*
X+7270000Y-1714500D01*
X+7266000Y-1718500D01*
X+7266000Y-4000000D01*
X+7524000Y-1500000D02*
X+7524000Y-1714500D01*
X+7520000Y-1718500D01*
X+7520000Y-4000000D01*
X-1841500Y-317500D02*
X-1841500Y-91500D01*
X-1500000Y+250000D01*
X-5016500Y-317500D02*
X-4988000Y-346000D01*
X-4988000Y-738000D01*
X-4889500Y-3619500D02*
X-4762500Y-3746500D01*
X-4699000Y-3746500D01*
X-4627600Y-3675100D01*
X-4627600Y-1460500D01*
X-4691100Y-1397000D01*
X-5143500Y-1397000D01*
X-5242000Y-1298500D01*
X-5242000Y-738000D01*
X-5262000Y-3016000D02*
X-5262000Y-2667000D01*
X-4826000Y-2231000D01*
X-4826000Y-1841500D01*
X-4889500Y-1778000D01*
X-5270500Y-1778000D01*
X-5369000Y-1679500D01*
X-5369000Y-865000D01*
X-5496000Y-738000D01*
X-5512000Y-3016000D02*
X-6115000Y-2413000D01*
X-6858000Y-2413000D01*
X-6921500Y-2349500D01*
X-6921500Y-1397000D01*
X-6847722Y-1323222D01*
X-6335222Y-1323222D01*
X-5750000Y-738000D01*
X-6223000Y-3556000D02*
X-6250000Y-3583000D01*
X-6250000Y-4000000D01*
X-5762000Y-3016000D02*
X-6238000Y-2540000D01*
X-6921500Y-2540000D01*
X-6985000Y-2476500D01*
X-6985000Y-1143000D01*
X-6900091Y-1058091D01*
X-6324091Y-1058091D01*
X-6004000Y-738000D01*
X-5762000Y-3016000D02*
X-5762000Y-3492500D01*
X-5996000Y-3726500D01*
X-5996000Y-4000000D01*
X-6858000Y-3302000D02*
X-6298000Y-3302000D01*
X-6012000Y-3016000D01*
X-6985000Y-3302000D02*
X-6985000Y-4127500D01*
X-6921500Y-4191000D01*
X-5933000Y-4191000D01*
X-5742000Y-4000000D01*
X-6985000Y-3302000D02*
X-6858000Y-3302000D01*
X-6262000Y-3016000D02*
X-6421000Y-3175000D01*
X-7048500Y-3175000D01*
X-7112000Y-3238500D01*
X-7112000Y-4254500D01*
X-7048500Y-4318000D01*
X-5806000Y-4318000D01*
X-5488000Y-4000000D01*
X-5207000Y-3238500D02*
X-5207000Y-3746500D01*
X-5234000Y-3773500D01*
X-5234000Y-4000000D01*
X-5016500Y-2222500D02*
X-4880900Y-2086900D01*
X-4880900Y-1905000D01*
X-4944400Y-1841500D01*
X-5397500Y-1841500D01*
X-5496000Y-1743000D01*
X-5496000Y-1500000D01*
X-5207000Y-3238500D02*
X-4889500Y-3238500D01*
X-4826000Y-3175000D01*
X-4826000Y-2921000D01*
X-5016500Y-2730500D01*
X-4980000Y-4000000D02*
X-4980000Y-3492500D01*
X-4762500Y-3275000D01*
X-4762500Y-1778000D01*
X-4826000Y-1714500D01*
X-5027500Y-1714500D01*
X-5242000Y-1500000D01*
X-2512000Y-3016000D02*
X-2349500Y-2853500D01*
X-2349500Y-1380500D01*
X-2992000Y-738000D01*
X-2762000Y-3016000D02*
X-2603000Y-3175000D01*
X-2349500Y-3175000D01*
X-2286000Y-3111500D01*
X-2286000Y-698500D01*
X-2349500Y-635000D01*
X-3143000Y-635000D01*
X-3246000Y-738000D01*
X-2222500Y-3175000D02*
X-2222500Y-635000D01*
X-2286000Y-571500D01*
X-3333500Y-571500D01*
X-3500000Y-738000D01*
X-2222500Y-3175000D02*
X-2159000Y-3238500D01*
X-2159000Y-4191000D01*
X-2222500Y-4254500D01*
X-3495500Y-4254500D01*
X-3750000Y-4000000D01*
X-2222500Y-3175000D02*
X-2286000Y-3238500D01*
X-2789500Y-3238500D01*
X-3012000Y-3016000D01*
X-3496000Y-4000000D02*
X-3876500Y-3619500D01*
X-4508500Y-3619500D01*
X-4572000Y-3556000D01*
X-4572000Y-1651000D01*
X-4508500Y-1587500D01*
X-4508500Y-1492500D01*
X-3754000Y-738000D01*
X-3496000Y-4000000D02*
X-3305000Y-4191000D01*
X-2349500Y-4191000D01*
X-2286000Y-4127500D01*
X-2286000Y-3492500D01*
X-2349500Y-3429000D01*
X-2857500Y-3429000D01*
X-3111500Y-3175000D01*
X-3262000Y-3175000D01*
X-3262000Y-3016000D01*
X-3492500Y-3175000D02*
X-3556000Y-3238500D01*
X-4445000Y-3238500D01*
X-4508500Y-3175000D01*
X-4508500Y-1778000D01*
X-4445000Y-1714500D01*
X-3968500Y-1714500D01*
X-3754000Y-1500000D01*
X-3492500Y-3175000D02*
X-3242000Y-3425500D01*
X-3242000Y-4000000D01*
X-3492500Y-3175000D02*
X-3512000Y-3155500D01*
X-3512000Y-3016000D01*
X-3762000Y-3016000D02*
X-3762000Y-2286000D01*
X-3825500Y-2222500D01*
X-4318000Y-2222500D01*
X-4391600Y-2148900D01*
X-4391600Y-1905000D01*
X-4328100Y-1841500D01*
X-2921000Y-1841500D01*
X-2857500Y-1778000D01*
X-2857500Y-1460500D01*
X-2921000Y-1397000D01*
X-3397000Y-1397000D01*
X-3500000Y-1500000D01*
X-4012000Y-3016000D02*
X-4012000Y-2488000D01*
X-4000500Y-2476500D01*
X-3238500Y-1651000D02*
X-3246000Y-1643500D01*
X-3246000Y-1500000D01*
X-3111500Y-3556000D02*
X-3048000Y-3492500D01*
X-2857500Y-3492500D01*
X-2734000Y-3616000D01*
X-2734000Y-4000000D01*
X-4262000Y-3016000D02*
X-4445000Y-2833000D01*
X-4445000Y-1841500D01*
X-4381500Y-1778000D01*
X-3111500Y-1778000D01*
X-2992000Y-1658500D01*
X-2992000Y-1500000D01*
X-12000Y-3016000D02*
X+190500Y-2813500D01*
X+190500Y-1143000D01*
X+77850Y-1030350D01*
X-199650Y-1030350D01*
X-492000Y-738000D01*
X+190500Y-3175000D02*
X+254000Y-3111500D01*
X+254000Y-698500D01*
X+190500Y-635000D01*
X-643000Y-635000D01*
X-746000Y-738000D01*
X+190500Y-3175000D02*
X+254000Y-3238500D01*
X+254000Y-4254500D01*
X+190500Y-4318000D01*
X-1186000Y-4318000D01*
X-1504000Y-4000000D01*
X+190500Y-3175000D02*
X-103000Y-3175000D01*
X-262000Y-3016000D01*
X-512000Y-3016000D02*
X+127000Y-2377000D01*
X+127000Y-1333500D01*
X+21682Y-1228182D01*
X-509818Y-1228182D01*
X-1000000Y-738000D01*
X-512000Y-3016000D02*
X+190500Y-3718500D01*
X+190500Y-4127500D01*
X+127000Y-4191000D01*
X-1059000Y-4191000D01*
X-1250000Y-4000000D01*
X-1333500Y-3683000D02*
X-1587500Y-3683000D01*
X-762000Y-3365500D02*
X-762000Y-3016000D01*
X-1587500Y-3683000D02*
X-2032000Y-3238500D01*
X-2032000Y-1778000D01*
X-1968500Y-1714500D01*
X-1460500Y-1714500D01*
X-1397000Y-1651000D01*
X-1397000Y-881000D01*
X-1254000Y-738000D01*
X-1333500Y-3683000D02*
X-1206500Y-3810000D01*
X-1186000Y-3810000D01*
X-996000Y-4000000D01*
X-1016000Y-3683000D02*
X-825500Y-3683000D01*
X-742000Y-3766500D01*
X-742000Y-4000000D01*
X-1012000Y-3016000D02*
X-1012000Y-3361500D01*
X-1016000Y-3365500D01*
X-1270000Y-3175000D02*
X-1270000Y-3492500D01*
X-1206500Y-3556000D01*
X-571500Y-3556000D01*
X-488000Y-3639500D01*
X-488000Y-4000000D01*
X-1270000Y-3175000D02*
X-1262000Y-3167000D01*
X-1262000Y-3016000D01*
X-1333500Y-3175000D02*
X-1905000Y-3175000D01*
X-1968500Y-3111500D01*
X-1968500Y-1841500D01*
X-1905000Y-1778000D01*
X-1278000Y-1778000D01*
X-1000000Y-1500000D01*
X-1333500Y-3175000D02*
X-1270000Y-3175000D01*
X-1762000Y-3016000D02*
X-1905000Y-2873000D01*
X-1905000Y-1905000D01*
X-1841500Y-1841500D01*
X-833500Y-1841500D01*
X-492000Y-1500000D01*
X-1508000Y-1500000D02*
X-1651000Y-1357000D01*
X-1651000Y-155000D01*
X-1246000Y+250000D01*
X-4953000Y-1270000D02*
X-4953000Y-1016000D01*
X-4881600Y-944600D01*
X-4881600Y-190500D01*
X-4996000Y-76100D01*
X-4996000Y+250000D01*
X-2496000Y+250000D02*
X-2754000Y+508000D01*
X-5988760Y+508000D01*
X-6246760Y+250000D01*
X+4770000Y-738000D02*
X+4936500Y-571500D01*
X+7103500Y-571500D01*
X+7270000Y-738000D01*
D11*
X-2095500Y-1270000D02*
X-2095500Y-508000D01*
X-2222500Y-381000D01*
X-2865000Y-381000D01*
X-3496000Y+250000D01*
X-2095500Y-1524000D02*
X-2095500Y-1270000D01*
X+16000Y-1500000D02*
X-12000Y-1528000D01*
X-12000Y-2000000D01*
X-2484000Y-1500000D02*
X-2512000Y-1528000D01*
X-2512000Y-2000000D01*
X-6512000Y-2000000D02*
X-6762000Y-2000000D01*
X-512000Y-2000000D02*
X-262000Y-2000000D01*
X-2762000Y-2000000D02*
X-2512000Y-2000000D01*
X-3512000Y-2000000D02*
X-3262000Y-2000000D01*
X-3012000Y-2000000D01*
X-1512000Y-2000000D02*
X-1262000Y-2000000D01*
X-1512000Y-2000000D02*
X-1762000Y-2000000D01*
X-3012000Y-2000000D02*
X-2762000Y-2000000D01*
X-3762000Y-2000000D02*
X-3512000Y-2000000D01*
D10*
X-1508000Y-738000D02*
X-992000Y-222000D01*
X-992000Y+250000D01*
X-4572000Y-698500D02*
X-4572000Y-1270000D01*
X-4648200Y-1346200D01*
X-5016500Y-1346200D01*
X-5091149Y-1271551D01*
X-5091149Y-635000D01*
X-5154649Y-571500D01*
X-6091500Y-571500D01*
X-6258000Y-738000D01*
X-4572000Y-698500D02*
X-4742000Y-528500D01*
X-4742000Y+250000D01*
X-4008000Y-738000D02*
X-4111000Y-635000D01*
X-4508500Y-635000D01*
X-4572000Y-698500D01*
X+4508500Y-1016000D02*
X+4516000Y-1008500D01*
X+4516000Y-738000D01*
X-4262000Y-1500000D02*
X-3619500Y-857500D01*
X-3619500Y-698500D01*
X-3873500Y-444500D01*
X-3873500Y+63500D01*
X-3937000Y+127000D01*
X-2032000Y+127000D02*
X-1968500Y+63500D01*
X-1968500Y-1293500D01*
X-1762000Y-1500000D01*
X-2032000Y+127000D02*
X-1714500Y+444500D01*
X-932500Y+444500D01*
X-738000Y+250000D01*
X-3937000Y+127000D02*
X-4000500Y+63500D01*
X-4301500Y+63500D01*
X-4488000Y+250000D01*
X-2032000Y+127000D02*
X-2095500Y+63500D01*
X-2857500Y+63500D01*
X-3238500Y+444500D01*
X-3873500Y+444500D01*
X-3937000Y+381000D01*
X-3937000Y+127000D01*
D11*
X-3746500Y-444500D02*
X-3750000Y-441000D01*
X-3750000Y+250000D01*
X+1000000Y-738000D02*
X+1293500Y-444500D01*
X+1460500Y-444500D01*
X+1635000Y-619000D01*
X+1635000Y-889000D01*
X+3349000Y-889000D01*
X+3500000Y-738000D01*
X+3500000Y-571500D01*
X+3881000Y-571500D01*
X+3881000Y-1016000D01*
X+4008000Y-1143000D01*
X+5595000Y-1143000D01*
X+6000000Y-738000D01*
D12*
X-1841500Y-317500D03*
X-5016500Y-317500D03*
X-4889500Y-3619500D03*
X-6223000Y-3556000D03*
X-6858000Y-3302000D03*
X-5016500Y-2222500D03*
X-5016500Y-2730500D03*
X-5207000Y-3238500D03*
X-4000500Y-2476500D03*
X-3238500Y-1651000D03*
X-3111500Y-3556000D03*
X-762000Y-3365500D03*
X-1587500Y-3683000D03*
X-1016000Y-3683000D03*
X-1016000Y-3365500D03*
X-4953000Y-1270000D03*
X-2095500Y-1270000D03*
X-2095500Y-1524000D03*
X+4508500Y-1016000D03*
X-3746500Y-444500D03*
D13*
X+1000000Y-1500000D03*
D14*
X+1254000Y-1500000D03*
X+1508000Y-1500000D03*
X+1762000Y-1500000D03*
X+2016000Y-1500000D03*
X+2270000Y-1500000D03*
X+2524000Y-1500000D03*
X+2778000Y-1500000D03*
X+2778000Y-738000D03*
X+2524000Y-738000D03*
X+2270000Y-738000D03*
X+2016000Y-738000D03*
X+1762000Y-738000D03*
X+1508000Y-738000D03*
X+1254000Y-738000D03*
X+1000000Y-738000D03*
D13*
X+3500000Y-1500000D03*
D14*
X+3754000Y-1500000D03*
X+4008000Y-1500000D03*
X+4262000Y-1500000D03*
X+4516000Y-1500000D03*
X+4770000Y-1500000D03*
X+5024000Y-1500000D03*
X+5278000Y-1500000D03*
X+5278000Y-738000D03*
X+5024000Y-738000D03*
X+4770000Y-738000D03*
X+4516000Y-738000D03*
X+4262000Y-738000D03*
X+4008000Y-738000D03*
X+3754000Y-738000D03*
X+3500000Y-738000D03*
D13*
X+6000000Y-1500000D03*
D14*
X+6254000Y-1500000D03*
X+6508000Y-1500000D03*
X+6762000Y-1500000D03*
X+7016000Y-1500000D03*
X+7270000Y-1500000D03*
X+7524000Y-1500000D03*
X+7778000Y-1500000D03*
X+7778000Y-738000D03*
X+7524000Y-738000D03*
X+7270000Y-738000D03*
X+7016000Y-738000D03*
X+6762000Y-738000D03*
X+6508000Y-738000D03*
X+6254000Y-738000D03*
X+6000000Y-738000D03*
D15*
X-6500760Y+250000D03*
X-6246760Y+250000D03*
X-5992760Y+250000D03*
X+742000Y-4000000D03*
X+996000Y-4000000D03*
X+1250000Y-4000000D03*
X+1504000Y-4000000D03*
X+1758000Y-4000000D03*
X+2012000Y-4000000D03*
X+2266000Y-4000000D03*
X+2520000Y-4000000D03*
X-6758000Y-4000000D03*
X-6504000Y-4000000D03*
X-6250000Y-4000000D03*
X-5996000Y-4000000D03*
X-5742000Y-4000000D03*
X-5488000Y-4000000D03*
X-5234000Y-4000000D03*
X-4980000Y-4000000D03*
D13*
X-6512000Y-1500000D03*
D14*
X-6258000Y-1500000D03*
X-6004000Y-1500000D03*
X-5750000Y-1500000D03*
X-5496000Y-1500000D03*
X-5242000Y-1500000D03*
X-4988000Y-1500000D03*
X-4734000Y-1500000D03*
X-4734000Y-738000D03*
X-4988000Y-738000D03*
X-5242000Y-738000D03*
X-5496000Y-738000D03*
X-5750000Y-738000D03*
X-6004000Y-738000D03*
X-6258000Y-738000D03*
X-6512000Y-738000D03*
D13*
X-4262000Y-1500000D03*
D14*
X-4008000Y-1500000D03*
X-3754000Y-1500000D03*
X-3500000Y-1500000D03*
X-3246000Y-1500000D03*
X-2992000Y-1500000D03*
X-2738000Y-1500000D03*
X-2484000Y-1500000D03*
X-2484000Y-738000D03*
X-2738000Y-738000D03*
X-2992000Y-738000D03*
X-3246000Y-738000D03*
X-3500000Y-738000D03*
X-3754000Y-738000D03*
X-4008000Y-738000D03*
X-4262000Y-738000D03*
D13*
X-1762000Y-1500000D03*
D14*
X-1508000Y-1500000D03*
X-1254000Y-1500000D03*
X-1000000Y-1500000D03*
X-746000Y-1500000D03*
X-492000Y-1500000D03*
X-238000Y-1500000D03*
X+16000Y-1500000D03*
X+16000Y-738000D03*
X-238000Y-738000D03*
X-492000Y-738000D03*
X-746000Y-738000D03*
X-1000000Y-738000D03*
X-1254000Y-738000D03*
X-1508000Y-738000D03*
X-1762000Y-738000D03*
D15*
X-4258000Y-4000000D03*
X-4004000Y-4000000D03*
X-3750000Y-4000000D03*
X-3496000Y-4000000D03*
X-3242000Y-4000000D03*
X-2988000Y-4000000D03*
X-2734000Y-4000000D03*
X-2480000Y-4000000D03*
X-1758000Y-4000000D03*
X-1504000Y-4000000D03*
X-1250000Y-4000000D03*
X-996000Y-4000000D03*
X-742000Y-4000000D03*
X-488000Y-4000000D03*
X-234000Y-4000000D03*
X+20000Y-4000000D03*
D16*
X-6762000Y-2000000D03*
X-6762000Y-3016000D03*
X-6512000Y-2000000D03*
X-6512000Y-3016000D03*
X-6262000Y-2000000D03*
X-6262000Y-3016000D03*
X-6012000Y-2000000D03*
X-6012000Y-3016000D03*
X-5762000Y-2000000D03*
X-5762000Y-3016000D03*
X-5512000Y-2000000D03*
X-5512000Y-3016000D03*
X-5262000Y-2000000D03*
X-5262000Y-3016000D03*
X-5012000Y-2000000D03*
X-5012000Y-3016000D03*
X-4262000Y-2000000D03*
X-4262000Y-3016000D03*
X-4012000Y-2000000D03*
X-4012000Y-3016000D03*
X-3762000Y-2000000D03*
X-3762000Y-3016000D03*
X-3512000Y-2000000D03*
X-3512000Y-3016000D03*
X-3262000Y-2000000D03*
X-3262000Y-3016000D03*
X-3012000Y-2000000D03*
X-3012000Y-3016000D03*
X-2762000Y-2000000D03*
X-2762000Y-3016000D03*
X-2512000Y-2000000D03*
X-2512000Y-3016000D03*
X-1762000Y-2000000D03*
X-1762000Y-3016000D03*
X-1512000Y-2000000D03*
X-1512000Y-3016000D03*
X-1262000Y-2000000D03*
X-1262000Y-3016000D03*
X-1012000Y-2000000D03*
X-1012000Y-3016000D03*
X-762000Y-2000000D03*
X-762000Y-3016000D03*
X-512000Y-2000000D03*
X-512000Y-3016000D03*
X-262000Y-2000000D03*
X-262000Y-3016000D03*
X-12000Y-2000000D03*
X-12000Y-3016000D03*
D15*
X+3242000Y-4000000D03*
X+3496000Y-4000000D03*
X+3750000Y-4000000D03*
X+4004000Y-4000000D03*
X+4258000Y-4000000D03*
X+4512000Y-4000000D03*
X+4766000Y-4000000D03*
X+5020000Y-4000000D03*
X+5742000Y-4000000D03*
X+5996000Y-4000000D03*
X+6250000Y-4000000D03*
X+6504000Y-4000000D03*
X+6758000Y-4000000D03*
X+7012000Y-4000000D03*
X+7266000Y-4000000D03*
X+7520000Y-4000000D03*
X-5250000Y+250000D03*
X-4996000Y+250000D03*
X-4742000Y+250000D03*
X-4488000Y+250000D03*
X-3750000Y+250000D03*
X-3496000Y+250000D03*
X-2750000Y+250000D03*
X-2496000Y+250000D03*
X-2242000Y+250000D03*
X-1500000Y+250000D03*
X-1246000Y+250000D03*
X-992000Y+250000D03*
X-738000Y+250000D03*
D17*
X-8000000Y-5000000D02*
X+9000000Y-5000000D01*
X+9000000Y+1250000D01*
X-8000000Y+1250000D01*
X-8000000Y-5000000D01*
M02*
